#!OML:ASF X:\für Bonn\!DataBase\2005_08_10_Bjorn_Final\c3d\bjorn.ASF
:FULLY-SPECIFIED
:DEGREES
218
root 0.977456 17.4179 22.1696 -315.297 -251.822 -314.425
lowerback 2.19403 -1.36842 11.2206
upperback 8.68084 -1.81481 3.67032
thorax 7.78279 -0.0512269 -2.39273
lowerneck -4.01037 6.19495 4.52291
upperneck 0.913315 8.35387 -9.46074
head 1.66042 4.08639 -3.62567
rclavicle 4.6118e-014 -2.48481e-015
rhumerus -42.9802 0.305439 -92.0177
rradius 81.9316
rwrist -2.40985
rhand -27.2348 23.6756
rfingers 7.12502
rthumb -0.646904 -6.30316
lclavicle 4.6118e-014 -2.48481e-015
lhumerus -41.9722 -18.992 105.203
lradius 84.8972
lwrist -8.39991
lhand -44.9769 -26.1127
lfingers 7.12502
lthumb -17.7614 3.09617
rfemur -17.2538 -7.01172 19.5045
rtibia 49.1706
rfoot -26.8152 21.4827
rtoes -27.5947
lfemur -15.4379 -0.993095 -11.7602
ltibia 88.525
lfoot -12.9834 5.91015
ltoes -17.7853
219
root 1.23118 17.4001 22.1679 -316.18 -251.345 -315.057
lowerback 2.48472 -1.05728 11.5505
upperback 8.76143 -1.34825 3.67735
thorax 7.76492 0.210982 -2.54124
lowerneck -4.32838 5.94712 4.37292
upperneck 1.01571 8.02001 -9.23256
head 1.70504 3.91263 -3.52326
rclavicle -8.07563e-015 5.96354e-016
rhumerus -41.4821 0.899914 -92.4175
rradius 82.6927
rwrist -2.24271
rhand -27.4898 23.938
rfingers 7.12502
rthumb -0.893183 -6.03989
lclavicle -8.07563e-015 5.96354e-016
lhumerus -42.9688 -18.447 105.364
lradius 84.6804
lwrist -7.9807
lhand -44.3211 -24.9163
lfingers 7.12502
lthumb -17.1302 4.34856
rfemur -15.797 -7.05153 19.7928
rtibia 48.9165
rfoot -27.5677 21.331
rtoes -26.9796
lfemur -17.3843 -0.406031 -11.7691
ltibia 89.2739
lfoot -13.777 5.46491
ltoes -16.1453
220
root 1.48543 17.3964 22.1621 -317.452 -250.999 -316.125
lowerback 2.7789 -0.746837 11.6557
upperback 8.79628 -0.877615 3.6027
thorax 7.69517 0.455055 -2.65818
lowerneck -4.56701 5.67909 4.3982
upperneck 1.13278 7.65741 -9.13
head 1.75507 3.72564 -3.50164
rclavicle -2.72087e-014 -2.39536e-014
rhumerus -40.0772 1.4034 -92.7557
rradius 83.5316
rwrist -1.76862
rhand -27.6027 24.071
rfingers 7.12502
rthumb -1.00219 -5.90643
lclavicle -2.72087e-014 -2.39536e-014
lhumerus -44.01 -17.9625 105.391
lradius 84.4345
lwrist -7.66301
lhand -43.8713 -24.1216
lfingers 7.12502
lthumb -16.6973 5.18027
rfemur -14.271 -7.05522 19.8719
rtibia 48.4711
rfoot -28.3581 21.084
rtoes -26.5876
lfemur -19.2894 0.168021 -12.0736
ltibia 89.6602
lfoot -14.3655 4.98317
ltoes -13.8507
221
root 1.74312 17.4065 22.1504 -318.924 -250.799 -317.516
lowerback 2.92395 -0.432638 11.5061
upperback 8.82501 -0.426853 3.47774
thorax 7.6995 0.673589 -2.69276
lowerneck -4.77404 5.42898 4.52859
upperneck 1.21836 7.31607 -9.141
head 1.80206 3.54997 -3.54005
rclavicle 1.3418e-014 6.75371e-014
rhumerus -38.5709 1.84868 -93.0681
rradius 84.2361
rwrist -1.09935
rhand -27.4552 24.2984
rfingers 7.12502
rthumb -0.859775 -5.67957
lclavicle 1.3418e-014 6.75371e-014
lhumerus -44.8999 -17.4731 105.232
lradius 84.0663
lwrist -7.45908
lhand -43.5651 -23.49
lfingers 7.12502
lthumb -16.4025 5.83644
rfemur -12.7666 -7.05397 19.7552
rtibia 47.8538
rfoot -29.0463 20.7639
rtoes -26.4886
lfemur -21.2118 0.841445 -12.6666
ltibia 89.71
lfoot -14.7205 4.68179
ltoes -11.8047
222
root 2.00129 17.4225 22.1345 -320.618 -250.689 -319.124
lowerback 3.14724 -0.14634 11.1184
upperback 8.77678 0.000185334 3.34334
thorax 7.56149 0.852311 -2.61266
lowerneck -4.82596 5.21547 4.8311
upperneck 1.39916 7.02891 -9.29646
head 1.87153 3.40204 -3.6633
rclavicle 1.47101e-014 -2.10712e-014
rhumerus -37.1653 2.41681 -93.4637
rradius 84.758
rwrist -0.714736
rhand -27.2219 24.8174
rfingers 7.12502
rthumb -0.634363 -5.16144
lclavicle 1.47101e-014 -2.10712e-014
lhumerus -45.8627 -16.8807 105.009
lradius 83.6607
lwrist -7.53842
lhand -43.4071 -22.8987
lfingers 7.12502
lthumb -16.2504 6.4403
rfemur -11.1582 -7.00042 19.5015
rtibia 47.061
rfoot -29.389 20.492
rtoes -26.4359
lfemur -23.0227 1.54337 -13.4788
ltibia 89.4506
lfoot -15.0124 4.71346
ltoes -10.0183
223
root 2.26064 17.4444 22.114 -322.404 -250.657 -320.894
lowerback 3.33383 0.126935 10.486
upperback 8.67055 0.400494 3.27119
thorax 7.36472 0.993157 -2.33682
lowerneck -4.70704 5.03205 4.98801
upperneck 1.57627 6.79741 -9.46086
head 1.90563 3.28557 -3.76406
rclavicle 1.60519e-014 3.37437e-014
rhumerus -35.8893 3.16999 -93.906
rradius 85.2501
rwrist -0.569742
rhand -27.0369 25.3438
rfingers 7.12502
rthumb -0.455732 -4.63551
lclavicle 1.60519e-014 3.37437e-014
lhumerus -46.9352 -16.042 104.828
lradius 83.3617
lwrist -7.88872
lhand -43.313 -22.5958
lfingers 7.12502
lthumb -16.1598 6.75053
rfemur -9.55378 -6.8609 19.1602
rtibia 46.1111
rfoot -29.5201 20.0385
rtoes -26.8151
lfemur -24.8008 2.24442 -14.4803
ltibia 88.9109
lfoot -15.7073 4.79151
ltoes -9.45716
224
root 2.52063 17.4764 22.0884 -323.641 -250.485 -322.162
lowerback 3.41726 0.427942 10.095
upperback 8.55232 0.819248 3.23489
thorax 7.22101 1.16176 -2.1535
lowerneck -4.57281 4.83193 5.01124
upperneck 1.76125 6.54581 -9.48241
head 1.92404 3.16038 -3.79008
rclavicle -1.02623e-014 -2.05245e-014
rhumerus -34.6795 3.84835 -94.3667
rradius 85.7562
rwrist -0.270159
rhand -26.855 25.7233
rfingers 7.12502
rthumb -0.280014 -4.25625
lclavicle -1.02623e-014 -2.05245e-014
lhumerus -48.0058 -15.4524 104.614
lradius 83.0095
lwrist -8.15551
lhand -43.4491 -22.9896
lfingers 7.12502
lthumb -16.2908 6.34603
rfemur -7.94591 -6.67808 19.0688
rtibia 44.9976
rfoot -29.4961 19.5869
rtoes -27.1043
lfemur -26.5778 2.909 -15.308
ltibia 88.092
lfoot -16.4942 4.99598
ltoes -9.55951
225
root 2.78317 17.5225 22.0565 -324.704 -250.241 -323.254
lowerback 3.42321 0.72374 9.78331
upperback 8.49053 1.2187 3.22657
thorax 7.18132 1.33349 -1.98055
lowerneck -4.51647 4.6403 4.93691
upperneck 1.92729 6.30545 -9.44355
head 1.94408 3.03961 -3.77369
rclavicle 2.54196e-014 4.57702e-014
rhumerus -33.4277 4.4562 -94.8233
rradius 86.2563
rwrist 0.21034
rhand -26.6197 25.9814
rfingers 7.12502
rthumb -0.0527866 -3.99832
lclavicle 2.54196e-014 4.57702e-014
lhumerus -49.0414 -15.0023 104.375
lradius 82.7651
lwrist -8.3303
lhand -43.5597 -23.7546
lfingers 7.12502
lthumb -16.3973 5.57233
rfemur -6.2745 -6.46913 19.0861
rtibia 43.7279
rfoot -29.2568 19.1252
rtoes -27.2451
lfemur -28.2345 3.42942 -16.116
ltibia 86.9748
lfoot -17.39 5.23469
ltoes -9.60915
226
root 3.05118 17.583 22.0163 -325.863 -250.027 -324.382
lowerback 3.45628 1.03718 9.46039
upperback 8.4442 1.64588 3.1855
thorax 7.14279 1.52043 -1.83502
lowerneck -4.39755 4.44484 4.81596
upperneck 2.09304 6.05709 -9.28446
head 1.9447 2.91721 -3.70717
rclavicle -2.86995e-015 -5.39203e-015
rhumerus -32.3392 5.00231 -95.3313
rradius 86.9014
rwrist 0.555673
rhand -26.4345 26.0943
rfingers 7.12502
rthumb 0.126066 -3.88536
lclavicle -2.86995e-015 -5.39203e-015
lhumerus -50.092 -14.7694 104.11
lradius 82.64
lwrist -8.34834
lhand -43.5324 -24.218
lfingers 7.12502
lthumb -16.371 5.11103
rfemur -4.40607 -6.28927 19.0297
rtibia 42.2764
rfoot -28.9285 18.5364
rtoes -28.0802
lfemur -29.6632 3.85272 -17.0145
ltibia 85.532
lfoot -18.3 5.49351
ltoes -10.2627
227
root 3.32482 17.6549 21.9708 -327.069 -249.787 -325.562
lowerback 3.47043 1.33631 9.11069
upperback 8.38361 2.05085 3.146
thorax 7.09202 1.69352 -1.67399
lowerneck -4.21594 4.27513 4.53965
upperneck 2.25607 5.84261 -8.93349
head 1.92156 2.81417 -3.54291
rclavicle 3.19236e-014 -5.09386e-015
rhumerus -31.4174 5.52496 -95.8863
rradius 87.6161
rwrist 0.885641
rhand -26.3987 26.0308
rfingers 7.12502
rthumb 0.160703 -3.94891
lclavicle 3.19236e-014 -5.09386e-015
lhumerus -51.126 -14.6269 103.847
lradius 82.6364
lwrist -8.30588
lhand -43.5197 -24.3567
lfingers 7.12502
lthumb -16.3588 4.97335
rfemur -2.43211 -6.11899 18.9625
rtibia 40.6398
rfoot -28.3042 18.0162
rtoes -28.6169
lfemur -30.9783 4.25913 -17.9453
ltibia 83.796
lfoot -18.9699 5.71481
ltoes -11.6166
